<?xml version="1.0" standalone="no"?>
<!DOCTYPE svg PUBLIC "-//W3C//DTD SVG 20010904//EN"
 "http://www.w3.org/TR/2001/REC-SVG-20010904/DTD/svg10.dtd">
<svg version="1.0" xmlns="http://www.w3.org/2000/svg"
 width="747.000000pt" height="542.000000pt" viewBox="0 0 747.000000 542.000000"
 preserveAspectRatio="xMidYMid meet">

<g transform="translate(0.000000,542.000000) scale(0.100000,-0.100000)"
fill="#000000" stroke="none">
<path d="M22 5408 c-9 -9 -12 -625 -12 -2710 l0 -2698 3730 0 3730 0 0 2710 0
2710 -3718 0 c-2878 0 -3721 -3 -3730 -12z m6794 -2003 c61 -40 82 -130 44
-192 -47 -77 -162 -89 -226 -22 -22 23 -29 41 -32 87 -4 52 -1 61 24 91 51 61
130 76 190 36z m-5706 -108 l35 -62 60 -8 c33 -5 102 -6 153 -3 63 4 92 2 92
-5 0 -7 -15 -38 -32 -70 l-33 -59 -235 0 -235 0 -67 -118 c-95 -166 -95 -152
-2 -152 l79 0 34 -65 35 -65 156 0 155 0 75 -127 c41 -69 77 -130 78 -135 2
-4 -68 -8 -155 -8 l-158 -1 -75 -130 c-86 -151 -68 -153 -166 19 l-64 114 36
65 c33 57 35 67 25 91 -7 15 -75 136 -152 269 l-140 241 17 34 c9 18 43 79 76
136 l60 102 156 0 157 -1 35 -62z m1400 -377 c0 -232 4 -347 11 -364 13 -28
64 -56 101 -56 22 0 29 -10 57 -81 17 -45 29 -85 25 -88 -3 -3 -54 -6 -112 -6
-123 0 -167 16 -221 82 -62 75 -64 91 -69 491 l-4 362 106 0 106 0 0 -340z
m-662 172 c39 -71 72 -131 72 -135 0 -4 -70 -7 -155 -7 l-155 0 -30 60 c-17
34 -49 91 -72 128 -22 37 -42 70 -45 75 -2 4 67 7 154 7 l158 0 73 -128z
m1537 -84 c76 -15 169 -77 213 -142 121 -182 57 -436 -133 -525 -150 -70 -351
-37 -455 75 -69 75 -85 122 -85 244 0 123 16 169 86 245 89 97 223 134 374
103z m1856 -17 c79 -30 141 -88 181 -168 l33 -67 3 -195 c4 -189 3 -197 -18
-223 -16 -21 -30 -28 -55 -28 -47 0 -65 22 -65 81 0 27 -3 49 -7 49 -5 -1 -20
-18 -34 -39 -15 -22 -46 -48 -72 -60 -132 -64 -292 -38 -390 63 -167 171 -119
471 91 572 101 49 228 54 333 15z m-1169 -207 l3 -216 33 -29 c55 -49 140 -37
178 24 17 28 19 49 16 172 -1 77 0 168 4 203 l6 62 99 0 99 0 0 -202 c0 -266
-14 -320 -107 -410 -60 -58 -123 -82 -220 -81 -101 0 -172 31 -232 100 -72 81
-81 122 -81 373 l0 220 99 0 100 0 3 -216z m2073 201 c114 -30 198 -109 230
-219 17 -56 20 -288 6 -466 -10 -125 -34 -183 -106 -249 -78 -72 -121 -86
-260 -86 -111 0 -124 2 -170 27 -81 43 -136 106 -160 186 -6 22 -5 22 94 22
86 0 102 -3 113 -19 56 -80 192 -79 259 2 21 25 39 100 39 158 l0 40 -37 -30
c-55 -44 -122 -56 -212 -37 -123 26 -198 84 -250 196 -25 53 -26 63 -29 273
l-4 217 214 0 c160 0 229 -4 273 -15z m695 -325 l0 -340 -100 0 -100 0 0 340
0 340 100 0 100 0 0 -340z"/>
<path d="M6723 3294 c-8 -21 13 -42 28 -27 13 13 5 43 -11 43 -6 0 -13 -7 -17
-16z"/>
<path d="M3265 2993 c-64 -11 -66 -13 -63 -41 3 -27 3 -27 88 -28 98 0 148
-20 212 -85 22 -22 44 -36 52 -33 58 22 -16 112 -134 162 -45 20 -118 31 -155
25z"/>
<path d="M3235 2805 c-151 -39 -143 -250 10 -283 91 -19 184 24 206 97 38 127
-74 222 -216 186z"/>
<path d="M3143 2495 c-13 -36 60 -75 94 -50 21 15 10 45 -16 45 -11 0 -23 5
-26 10 -10 15 -45 12 -52 -5z"/>
<path d="M5160 2982 c-40 -13 -32 -48 13 -58 49 -10 83 -30 126 -75 41 -43 71
-47 71 -11 0 25 -43 82 -80 105 -38 24 -110 46 -130 39z"/>
<path d="M5040 2821 c-83 -17 -132 -74 -134 -154 -1 -102 67 -167 177 -167
129 0 209 92 178 206 -11 39 -47 82 -86 101 -30 15 -95 21 -135 14z"/>
<path d="M5852 2717 c5 -134 22 -173 92 -206 138 -67 278 43 244 192 -20 91
-86 126 -237 127 l-104 0 5 -113z"/>
</g>
</svg>
